<svg xmlns="http://www.w3.org/2000/svg" width="24" height="24" viewBox="0 0 24 24" fill="none">
  <path d="M18 11V7.5C18 7.22386 17.7761 7 17.5 7H6.5C6.22386 7 6 7.22386 6 7.5V11M18 11H21.5C21.7761 11 22 10.7761 22 10.5V3.5C22 3.22386 21.7761 3 21.5 3H2.5C2.22386 3 2 3.22386 2 3.5V10V10.5C2 10.7761 2.22386 11 2.5 11H6M18 11V17M6 11V17M6 17V20.5C6 20.7761 6.22386 21 6.5 21H10M6 17C7.5 16.8333 10.4 17.4 10 21M10 21H14M14 21H17.5C17.7761 21 18 20.7761 18 20.5V17M14 21C13.8333 19.5 14.4 16.6 18 17" stroke="black" stroke-width="1.5"/>
  <circle cx="12" cy="13" r="2.25" stroke="black" stroke-width="1.5"/>
</svg>