<svg xmlns="http://www.w3.org/2000/svg" width="24" height="24" viewBox="0 0 24 24" fill="none">
  <path d="M13 12.6264V6.79775C13 5.39888 14 4 16 4C18 4 19 5.39888 19 6.79775V17.9888" stroke="#240E00" stroke-opacity="0.8" stroke-width="1.5"/>
  <path d="M5 20.7865H12.943C12.9745 20.7865 13 20.7632 13 20.7334V12.9785C13 9.5652 10.033 6.79776 6.3725 6.79776C5.61067 6.79776 4.88003 7.07999 4.34134 7.58238C3.80264 8.08476 3.5 8.76613 3.5 9.47661V15.6573M16.375 17.9888H21.625L22 20.7865H16L16.375 17.9888Z" stroke="#240E00" stroke-opacity="0.8" stroke-width="1.5" stroke-linecap="round" stroke-linejoin="round"/>
  <path d="M5 20.7865C6.65685 20.7865 8 19.5339 8 17.9888C8 16.4436 6.65685 15.191 5 15.191C3.34315 15.191 2 16.4436 2 17.9888C2 19.5339 3.34315 20.7865 5 20.7865Z" stroke="#240E00" stroke-opacity="0.8" stroke-width="1.5"/>
  <path d="M7 6.79776V15.6573" stroke="#240E00" stroke-opacity="0.8" stroke-width="1.5" stroke-linecap="round" stroke-linejoin="round"/>
</svg>