<svg xmlns="http://www.w3.org/2000/svg" width="24" height="24" viewBox="0 0 24 24" fill="none">
  <path fill-rule="evenodd" clip-rule="evenodd" d="M4 10.9136C2.84932 10.6138 2 9.56756 2 8.32297C2 7.9824 2.06499 7.64495 2.19147 7.32874L3.06575 5.14305C3.82507 3.24475 5.66361 2 7.70813 2H16.2919C18.3364 2 20.1749 3.24476 20.9343 5.14305L21.8085 7.32874C21.935 7.64495 22 7.9824 22 8.32297C22 9.56756 21.1507 10.6138 20 10.9137V20H21C21.5523 20 22 20.4477 22 21C22 21.5523 21.5523 22 21 22H3C2.44772 22 2 21.5523 2 21C2 20.4477 2.44772 20 3 20H4V10.9136ZM6.74871 4.15741C5.93121 4.43347 5.25486 5.05543 4.9227 5.88583L4.04842 8.07152C4.01644 8.15149 4 8.23684 4 8.32297C4 8.69688 4.30312 9 4.67703 9H5.1802C5.63296 9 6 8.63296 6 8.1802C6 7.99451 6.01834 7.80927 6.05476 7.62719L6.74871 4.15741ZM10 20H14V18C14 16.8954 13.1046 16 12 16C10.8954 16 10 16.8954 10 18V20ZM16 20V18C16 15.7909 14.2091 14 12 14C9.79086 14 8 15.7909 8 18V20H6V10.879C6.37162 10.7662 6.71077 10.5788 7 10.3343C7.49113 10.7496 8.12622 11 8.8198 11H10C10.7684 11 11.4692 10.7111 12 10.2361C12.5308 10.7111 13.2316 11 14 11H15.1802C15.8738 11 16.5089 10.7496 17 10.3342C17.2892 10.5788 17.6284 10.7662 18 10.879V20H16ZM18.8198 9H19.323C19.6969 9 20 8.69688 20 8.32297C20 8.23684 19.9836 8.15149 19.9516 8.07152L19.0773 5.88583C18.7451 5.05543 18.0688 4.43347 17.2513 4.15741L17.9452 7.62719C17.9817 7.80927 18 7.99451 18 8.1802C18 8.63296 18.367 9 18.8198 9ZM8.8198 4L8.01592 8.01942C8.00533 8.07236 8 8.12621 8 8.1802C8 8.63296 8.36704 9 8.8198 9H10C10.5523 9 11 8.55228 11 8V4H8.8198ZM15.1802 4L15.9841 8.01942C15.9947 8.07236 16 8.12621 16 8.1802C16 8.63296 15.633 9 15.1802 9H14C13.4477 9 13 8.55228 13 8V4H15.1802Z" fill="#240E00" fill-opacity="0.8"/>
</svg>