<svg xmlns="http://www.w3.org/2000/svg" width="24" height="24" viewBox="0 0 24 24" fill="none">
  <path d="M18 5.00988L18.01 4.99888M21 3.99988V19.9999C21 20.5303 20.7893 21.039 20.4142 21.4141C20.0391 21.7892 19.5304 21.9999 19 21.9999H5C4.46957 21.9999 3.96086 21.7892 3.58579 21.4141C3.21071 21.039 3 20.5303 3 19.9999V3.99988C3 3.46944 3.21071 2.96074 3.58579 2.58566C3.96086 2.21059 4.46957 1.99988 5 1.99988H19C19.5304 1.99988 20.0391 2.21059 20.4142 2.58566C20.7893 2.96074 21 3.46944 21 3.99988Z" stroke="#240E00" stroke-opacity="0.8" stroke-width="2" stroke-linecap="round" stroke-linejoin="round"/>
  <path d="M12 18.9998C13.5913 18.9998 15.1174 18.3676 16.2426 17.2424C17.3679 16.1172 18 14.5911 18 12.9998C18 11.4085 17.3679 9.88233 16.2426 8.75712C15.1174 7.6319 13.5913 6.99976 12 6.99976C10.4087 6.99976 8.88258 7.6319 7.75736 8.75712C6.63214 9.88233 6 11.4085 6 12.9998C6 14.5911 6.63214 16.1172 7.75736 17.2424C8.88258 18.3676 10.4087 18.9998 12 18.9998V18.9998Z" stroke="#240E00" stroke-opacity="0.8" stroke-width="2" stroke-linecap="round" stroke-linejoin="round"/>
  <path d="M12 15.9998C11.2044 15.9998 10.4413 15.6837 9.87868 15.1211C9.31607 14.5585 9 13.7954 9 12.9998" stroke="#240E00" stroke-opacity="0.8" stroke-width="2" stroke-linecap="round" stroke-linejoin="round"/>
</svg>